Siouxsie and The Banshees - Hong Kong Garden.mp4

DVDrip

. . .

General
Format                                   : MPEG-4
Format profile                           : Base Media / Version 2
Codec ID                                 : mp42
File size                                : 112 MiB
Duration                                 : 2mn 58s
Overall bit rate mode                    : Variable
Overall bit rate                         : 5 248 Kbps
Encoded date                             : UTC 2013-04-19 21:02:39
Tagged date                              : UTC 2013-04-19 21:02:39
Writing application                      : mp4creator 1.6.1d

Video
ID                                       : 1
Format                                   : AVC
Format/Info                              : Advanced Video Codec
Format profile                           : High@L3.0
Format settings, CABAC                   : Yes
Format settings, ReFrames                : 4 frames
Codec ID                                 : avc1
Codec ID/Info                            : Advanced Video Coding
Duration                                 : 2mn 58s
Bit rate mode                            : Variable
Bit rate                                 : 5 006 Kbps
Width                                    : 720 pixels
Height                                   : 576 pixels
Display aspect ratio                     : 5:4
Frame rate mode                          : Constant
Frame rate                               : 25.000 fps
Standard                                 : PAL
Color space                              : YUV
Chroma subsampling                       : 4:2:0
Bit depth                                : 8 bits
Scan type                                : Progressive
Bits/(Pixel*Frame)                       : 0.483
Stream size                              : 107 MiB (95%)

Audio
ID                                       : 2
Format                                   : AAC
Format/Info                              : Advanced Audio Codec
Format profile                           : LC
Codec ID                                 : 40
Duration                                 : 2mn 58s
Bit rate mode                            : Variable
Bit rate                                 : 238 Kbps
Maximum bit rate                         : 284 Kbps
Channel(s)                               : 2 channels
Channel positions                        : Front: L R
Sampling rate                            : 48.0 KHz
Compression mode                         : Lossy
Delay relative to video                  : -80ms
Stream size                              : 5.06 MiB (5%)